<?xml version="1.0" encoding="UTF-8"?>
<svg version="1.1" xmlns="http://www.w3.org/2000/svg" width="202" height="200">
<path d="M0 0 C1.0828125 0.37382813 2.165625 0.74765625 3.28125 1.1328125 C21.56335538 8.10401935 34.2823303 22.11265962 42.68359375 39.48046875 C46.09192071 47.13857995 48.83911721 54.90389247 51 63 C51.45052734 64.58361328 51.45052734 64.58361328 51.91015625 66.19921875 C54.01020051 74.76544581 54.34090658 83.14396476 54.4375 91.9375 C54.45973633 93.09910645 54.48197266 94.26071289 54.50488281 95.45751953 C54.48467104 103.23568487 53.63253001 109.10573748 48.2109375 114.91796875 C46.16678992 116.33147505 44.11930952 117.70094863 42 119 C41.31550781 119.43054688 40.63101563 119.86109375 39.92578125 120.3046875 C25.98657277 128.13789017 8.63248421 130.10971216 -7 132 C-7.74958984 132.09571289 -8.49917969 132.19142578 -9.27148438 132.29003906 C-16.95534687 133.17810768 -24.64724961 133.24333269 -32.375 133.25 C-33.43364258 133.25101212 -33.43364258 133.25101212 -34.51367188 133.25204468 C-57.77512703 133.21684989 -85.83896791 130.51924823 -103.6328125 113.56640625 C-109.29913033 107.07442496 -109.75236838 100.65145106 -109.18457031 92.20800781 C-106.53687308 60.53370394 -97.77097136 29.43327113 -73 8 C-53.65996165 -7.16682557 -22.29176747 -7.82256978 0 0 Z " fill="#F9C133" transform="translate(127,38)"/>
<path d="M0 0 C3.64751591 0.28057815 5.34775143 1.07331357 8.25 3.25 C11.2157349 7.69860234 10.89087636 12.03143535 10.25 17.25 C8.44881522 20.25197464 7.34667268 21.70166366 4.25 23.25 C0.06855989 23.64447548 -2.05946048 23.70035186 -5.625 21.375 C-8.76710663 18.23289337 -8.97183366 16.29095878 -9.125 11.9375 C-9.10817807 7.65912233 -9.03926707 6.62085521 -6.3125 3.125 C-5.466875 2.50625 -4.62125 1.8875 -3.75 1.25 C-2.75 0.25 -2.75 0.25 0 0 Z " fill="#060501" transform="translate(130.75,78.75)"/>
<path d="M0 0 C3.30317928 2.78162466 4.28048879 5.35045551 4.9375 9.5 C5.22708294 13.55416111 4.6442731 15.78909694 2 19 C1.608125 19.598125 1.21625 20.19625 0.8125 20.8125 C-1.67011443 22.43904049 -3.99502117 22.65975418 -6.92578125 22.53515625 C-10.27019778 21.67228419 -11.91022816 19.86071175 -13.92578125 17.1328125 C-15.81293917 13.38594622 -16.00035286 10.05290021 -15 6 C-11.40334446 -0.52575001 -7.05111615 -1.73185309 0 0 Z " fill="#050401" transform="translate(75,80)"/>
<path d="M0 0 C4.875 0.875 4.875 0.875 6 2 C10.71529529 2.3316046 10.71529529 2.3316046 15.125 0.9375 C17.69747041 -0.3487352 19.2992139 0.24978164 22 1 C21.8125 3.3125 21.8125 3.3125 21 6 C15.73025897 9.97359288 10.35029799 9.83325733 4 9 C0.75 7 0.75 7 -1 5 C-0.67 3.35 -0.34 1.7 0 0 Z " fill="#0E0A02" transform="translate(91,131)"/>
</svg>
